<svg xmlns="http://www.w3.org/2000/svg" viewBox="0 0 18 18" role="img" aria-label="Google logo">
  <path fill="#4285F4" d="M17.64 9.2045c0-.6382-.0573-1.2518-.1636-1.8409H9v3.4818h4.8436c-.2087 1.125-.8427 2.0782-1.796 2.7164v2.2582h2.9082c1.7018-1.5668 2.6842-3.8741 2.6842-6.6155z"/>
  <path fill="#34A853" d="M9 18c2.43 0 4.4673-.8059 5.9564-2.1791l-2.9082-2.2582c-.8059.54-1.8368.8591-3.0482.8591-2.3432 0-4.3282-1.5827-5.0368-3.7091H.9573v2.3327A8.9996 8.9996 0 0 0 9 18z"/>
  <path fill="#FBBC05" d="M3.9632 10.7127c-.18-.54-.2836-1.1168-.2836-1.7127s.1036-1.1727.2836-1.7127V4.9545H.9573A8.9996 8.9996 0 0 0 0 9c0 1.4495.3477 2.8214.9573 4.0455l3.0059-2.3328z"/>
  <path fill="#EA4335" d="M9 3.5782c1.3214 0 2.5077.4541 3.4405 1.3459l2.5814-2.5814C13.4632.8918 11.4259 0 9 0A8.9996 8.9996 0 0 0 .9573 4.9545l3.0059 2.3328C4.6718 5.1609 6.6568 3.5782 9 3.5782z"/>
</svg>
